<?xml version="1.0" encoding="UTF-8"?>
<!DOCTYPE svg PUBLIC "-//W3C//DTD SVG 1.1//EN" "http://www.w3.org/Graphics/SVG/1.1/DTD/svg11.dtd">
<svg xmlns="http://www.w3.org/2000/svg" version="1.1" width="579px" height="447px" style="shape-rendering:geometricPrecision; text-rendering:geometricPrecision; image-rendering:optimizeQuality; fill-rule:evenodd; clip-rule:evenodd" xmlns:xlink="http://www.w3.org/1999/xlink">
<g><path style="opacity:0.992" fill="#04d5a8" d="M 292.5,72.5 C 292.5,73.8333 293.167,74.5 294.5,74.5C 296.153,74.6596 297.486,75.3263 298.5,76.5C 298.821,78.0481 299.821,78.7148 301.5,78.5C 302.167,78.5 302.5,78.8333 302.5,79.5C 303.67,81.2785 305.336,82.2785 307.5,82.5C 309.858,82.2525 311.858,82.9192 313.5,84.5C 313.5,85.8333 314.167,86.5 315.5,86.5C 316.791,86.2627 317.791,86.596 318.5,87.5C 318.967,90.2974 320.633,91.6308 323.5,91.5C 324.609,91.5569 325.609,91.8902 326.5,92.5C 327.3,94.7409 328.966,95.7409 331.5,95.5C 332.995,95.9887 334.329,96.6554 335.5,97.5C 335.821,99.0481 336.821,99.7148 338.5,99.5C 339.833,100.167 341.167,100.833 342.5,101.5C 342.5,102.833 343.167,103.5 344.5,103.5C 346.153,103.66 347.486,104.326 348.5,105.5C 349.183,107.176 350.517,107.843 352.5,107.5C 361.01,111.147 368.344,116.481 374.5,123.5C 375.426,126.044 376.426,128.544 377.5,131C 376.17,161.804 376.17,192.637 377.5,223.5C 374.551,228.944 370.718,233.61 366,237.5C 363.709,236.689 361.875,237.523 360.5,240C 354.955,241.274 350.288,243.941 346.5,248C 328.157,257.461 310.49,267.794 293.5,279C 291.19,279.497 288.857,279.663 286.5,279.5C 284.5,279.5 282.5,279.5 280.5,279.5C 273.548,279.197 267.548,276.363 262.5,271C 256.34,270.507 251.34,267.84 247.5,263C 230.964,253.912 214.631,244.745 198.5,235.5C 195.531,232.899 193.031,229.899 191,226.5C 190.333,192.5 190.333,158.5 191,124.5C 194.299,120.37 198.132,116.703 202.5,113.5C 223.544,102.316 244.211,90.6497 264.5,78.5C 266.179,78.7148 267.179,78.0481 267.5,76.5C 275.17,71.7142 283.504,70.3809 292.5,72.5 Z M 324.5,232.5 C 322.922,234.375 323.255,235.708 325.5,236.5C 325.575,239.206 325.908,241.873 326.5,244.5C 325.698,245.952 325.198,247.618 325,249.5C 324.329,248.748 323.496,248.414 322.5,248.5C 319.109,246.127 316.109,243.294 313.5,240C 309.537,237.346 305.537,234.68 301.5,232C 296.423,231.135 292.423,232.802 289.5,237C 285.833,237.667 282.167,237.667 278.5,237C 275.16,234.489 271.494,232.656 267.5,231.5C 266.147,229.262 264.147,227.929 261.5,227.5C 259.421,225.127 256.754,223.794 253.5,223.5C 249.64,220.217 245.307,217.384 240.5,215C 235.07,211.617 230.904,207.117 228,201.5C 227.833,199.167 227.667,196.833 227.5,194.5C 227.948,178.121 228.781,161.788 230,145.5C 231.145,142.523 233.312,140.856 236.5,140.5C 239.304,138.182 242.138,135.849 245,133.5C 246.579,134.172 247.746,133.505 248.5,131.5C 249.895,132.815 250.895,132.481 251.5,130.5C 259.368,126.251 266.868,121.585 274,116.5C 274.333,116.833 274.667,117.167 275,117.5C 279.661,115.65 284.494,115.15 289.5,116C 304.536,124.816 319.702,133.649 335,142.5C 336.604,144.992 337.938,147.659 339,150.5C 339.667,167.5 339.667,184.5 339,201.5C 338.274,204.621 336.774,207.287 334.5,209.5C 330.56,211.717 326.727,214.05 323,216.5C 322.713,218.891 322.213,221.224 321.5,223.5C 322.953,226.425 323.953,229.425 324.5,232.5 Z"/></g>
<g><path style="opacity:0.013" fill="#000000" d="M 292.5,72.5 C 293.5,72.8333 294.167,73.5 294.5,74.5C 293.167,74.5 292.5,73.8333 292.5,72.5 Z"/></g>
<g><path style="opacity:0.011" fill="#000005" d="M 267.5,76.5 C 267.179,78.0481 266.179,78.7148 264.5,78.5C 264.973,77.0937 265.973,76.427 267.5,76.5 Z"/></g>
<g><path style="opacity:0.008" fill="#060006" d="M 298.5,76.5 C 300.027,76.427 301.027,77.0937 301.5,78.5C 299.821,78.7148 298.821,78.0481 298.5,76.5 Z"/></g>
<g><path style="opacity:0.255" fill="#194d3d" d="M 302.5,79.5 C 304.933,79.2729 306.599,80.2729 307.5,82.5C 305.336,82.2785 303.67,81.2785 302.5,79.5 Z"/></g>
<g><path style="opacity:0.014" fill="#000000" d="M 313.5,84.5 C 314.833,84.5 315.5,85.1667 315.5,86.5C 315.5,85.1667 314.833,84.5 313.5,84.5 Z"/></g>
<g><path style="opacity:0.18" fill="#194c3d" d="M 318.5,87.5 C 320.191,88.8637 321.858,90.197 323.5,91.5C 320.633,91.6308 318.967,90.2974 318.5,87.5 Z"/></g>
<g><path style="opacity:0.067" fill="#164c3a" d="M 326.5,92.5 C 328.434,93.1103 330.101,94.1103 331.5,95.5C 328.966,95.7409 327.3,94.7409 326.5,92.5 Z"/></g>
<g><path style="opacity:0.013" fill="#000000" d="M 335.5,97.5 C 336.71,97.9321 337.71,98.5987 338.5,99.5C 336.821,99.7148 335.821,99.0481 335.5,97.5 Z"/></g>
<g><path style="opacity:0.009" fill="#000000" d="M 342.5,101.5 C 343.5,101.833 344.167,102.5 344.5,103.5C 343.167,103.5 342.5,102.833 342.5,101.5 Z"/></g>
<g><path style="opacity:0.009" fill="#000003" d="M 348.5,105.5 C 350.153,105.66 351.486,106.326 352.5,107.5C 350.517,107.843 349.183,107.176 348.5,105.5 Z"/></g>
<g><path style="opacity:0.01" fill="#000000" d="M 248.5,131.5 C 249.209,130.596 250.209,130.263 251.5,130.5C 250.895,132.481 249.895,132.815 248.5,131.5 Z"/></g>
<g><path style="opacity:0.467" fill="#1b634c" d="M 253.5,223.5 C 256.754,223.794 259.421,225.127 261.5,227.5C 258.119,227.46 255.452,226.127 253.5,223.5 Z"/></g>
<g><path style="opacity:0.137" fill="#1c6c51" d="M 261.5,227.5 C 264.147,227.929 266.147,229.262 267.5,231.5C 264.487,231.419 262.487,230.086 261.5,227.5 Z"/></g>
<g><path style="opacity:0.006" fill="#000000" d="M 324.5,232.5 C 325.434,233.568 325.768,234.901 325.5,236.5C 323.255,235.708 322.922,234.375 324.5,232.5 Z"/></g>
<g><path style="opacity:0.012" fill="#000303" d="M 326.5,244.5 C 327.135,247.493 327.301,250.493 327,253.5C 325.293,251.963 323.793,250.296 322.5,248.5C 323.496,248.414 324.329,248.748 325,249.5C 325.198,247.618 325.698,245.952 326.5,244.5 Z"/></g>
<g><path style="opacity:0.009" fill="#030303" d="M 280.5,279.5 C 282.5,279.5 284.5,279.5 286.5,279.5C 285.359,280.339 284.026,281.006 282.5,281.5C 281.478,281.145 280.811,280.478 280.5,279.5 Z"/></g>
<g><path style="opacity:0.942" fill="#02d6a9" d="M 154.5,334.5 C 154.606,339.463 155.606,339.463 157.5,334.5C 159.179,334.715 160.179,334.048 160.5,332.5C 164.735,331.564 169.069,331.231 173.5,331.5C 178.245,333.424 182.578,336.091 186.5,339.5C 187.434,340.568 187.768,341.901 187.5,343.5C 187.667,355.505 187.5,367.505 187,379.5C 186.814,382.036 186.314,384.369 185.5,386.5C 182.167,386.5 178.833,386.5 175.5,386.5C 175.666,376.161 175.5,365.828 175,355.5C 174.617,354.944 174.117,354.611 173.5,354.5C 173.5,353.833 173.5,353.167 173.5,352.5C 173.577,346.572 170.91,343.905 165.5,344.5C 164.292,345.234 162.959,345.567 161.5,345.5C 157.228,346.382 155.561,348.716 156.5,352.5C 156.5,352.833 156.5,353.167 156.5,353.5C 154.586,356.684 153.92,360.351 154.5,364.5C 154.75,369.666 154.75,375 154.5,380.5C 154.5,382.5 154.5,384.5 154.5,386.5C 149.456,386.827 144.456,386.494 139.5,385.5C 140.43,367.072 140.763,348.405 140.5,329.5C 140.5,324.167 140.5,318.833 140.5,313.5C 142.641,312.837 144.975,312.503 147.5,312.5C 150.364,312.386 153.03,312.886 155.5,314C 154.716,320.909 154.383,327.742 154.5,334.5 Z"/></g>
<g><path style="opacity:0.995" fill="#02d1a5" d="M 428.5,312.5 C 430.532,313.048 431.532,314.381 431.5,316.5C 431.5,322.5 431.5,328.5 431.5,334.5C 431.343,335.873 431.51,337.207 432,338.5C 435.932,335.492 440.098,333.158 444.5,331.5C 446.5,331.5 448.5,331.5 450.5,331.5C 451.756,331.904 452.923,332.571 454,333.5C 456.078,332.057 456.911,332.724 456.5,335.5C 460.574,336.372 464.241,338.039 467.5,340.5C 468.338,340.842 468.672,341.508 468.5,342.5C 471.908,352.233 472.242,362.066 469.5,372C 466.864,375.813 464.53,378.979 462.5,381.5C 461.325,381.281 460.325,381.614 459.5,382.5C 458.174,383.642 457.174,384.976 456.5,386.5C 456.389,387.117 456.056,387.617 455.5,388C 450.167,388.667 444.833,388.667 439.5,388C 438.944,387.617 438.611,387.117 438.5,386.5C 437.015,383.917 434.682,382.584 431.5,382.5C 431.5,383.5 431.5,384.5 431.5,385.5C 427.3,386.22 422.967,386.886 418.5,387.5C 417.914,387.291 417.414,386.957 417,386.5C 416.5,361.836 416.333,337.169 416.5,312.5C 420.5,312.5 424.5,312.5 428.5,312.5 Z M 443.5,344.5 C 444.5,344.5 445.5,344.5 446.5,344.5C 448.924,346.241 451.59,347.575 454.5,348.5C 454.794,351.754 456.127,354.421 458.5,356.5C 458.5,358.5 458.5,360.5 458.5,362.5C 456.408,364.346 455.074,366.679 454.5,369.5C 452.463,370.846 450.463,372.18 448.5,373.5C 442.968,373.96 438.301,372.293 434.5,368.5C 434.741,365.966 433.741,364.3 431.5,363.5C 431.5,360.833 431.5,358.167 431.5,355.5C 433.461,353.881 434.794,351.714 435.5,349C 438.354,347.603 441.02,346.103 443.5,344.5 Z"/></g>
<g><path style="opacity:0.006" fill="#12251d" d="M 428.5,312.5 C 429.542,311.209 430.708,311.209 432,312.5C 432.765,314.066 432.598,315.399 431.5,316.5C 431.532,314.381 430.532,313.048 428.5,312.5 Z"/></g>
<g><path style="opacity:0.006" fill="#000000" d="M 140.5,313.5 C 140.5,318.833 140.5,324.167 140.5,329.5C 139.784,324.966 139.117,320.299 138.5,315.5C 138.855,314.478 139.522,313.811 140.5,313.5 Z"/></g>
<g><path style="opacity:0.008" fill="#000000" d="M 133.5,314.5 C 134.478,314.811 135.145,315.478 135.5,316.5C 134.891,320.635 134.224,324.635 133.5,328.5C 133.5,323.833 133.5,319.167 133.5,314.5 Z"/></g>
<g><path style="opacity:1" fill="#01d5a8" d="M 331.5,386.5 C 330.833,375.992 330.167,365.326 329.5,354.5C 328.893,354.624 328.56,354.957 328.5,355.5C 328.167,355.5 327.833,355.5 327.5,355.5C 321.5,355.5 315.5,355.5 309.5,355.5C 309.167,355.5 308.833,355.5 308.5,355.5C 308.44,354.957 308.107,354.624 307.5,354.5C 306.501,365.146 306.168,375.813 306.5,386.5C 301.833,386.5 297.167,386.5 292.5,386.5C 292.5,385.5 292.5,384.5 292.5,383.5C 292.465,360.649 292.465,337.649 292.5,314.5C 296.5,314.5 300.5,314.5 304.5,314.5C 306.155,322.952 307.155,331.619 307.5,340.5C 308.833,340.5 310.167,340.5 311.5,340.5C 316.944,340.177 322.277,340.177 327.5,340.5C 329.47,332.231 330.136,323.565 329.5,314.5C 334.276,314.296 339.276,314.296 344.5,314.5C 344.5,338.5 344.5,362.5 344.5,386.5C 340.167,386.5 335.833,386.5 331.5,386.5 Z"/></g>
<g><path style="opacity:0.008" fill="#000000" d="M 329.5,314.5 C 330.136,323.565 329.47,332.231 327.5,340.5C 327.97,333.109 327.97,325.776 327.5,318.5C 327.994,316.974 328.661,315.641 329.5,314.5 Z"/></g>
<g><path style="opacity:0.459" fill="#117e63" d="M 131.5,314.5 C 132.167,313.167 132.833,313.167 133.5,314.5C 133.5,319.167 133.5,323.833 133.5,328.5C 132.833,329.833 132.167,329.833 131.5,328.5C 132.833,323.833 132.833,319.167 131.5,314.5 Z"/></g>
<g><path style="opacity:0.289" fill="#0b3b2f" d="M 99.5,314.5 C 97.5,314.5 95.5,314.5 93.5,314.5C 92.8969,319.619 93.5636,324.285 95.5,328.5C 93.0285,329.935 91.3618,329.101 90.5,326C 91.7946,323.199 91.7946,320.366 90.5,317.5C 92.1499,311.916 95.1499,310.916 99.5,314.5 Z"/></g>
<g><path style="opacity:0.449" fill="#0d725a" d="M 304.5,314.5 C 306.264,313.288 307.93,313.621 309.5,315.5C 307.995,316.842 307.328,318.508 307.5,320.5C 307.5,327.167 307.5,333.833 307.5,340.5C 307.155,331.619 306.155,322.952 304.5,314.5 Z"/></g>
<g><path style="opacity:0.009" fill="#000000" d="M 307.5,320.5 C 308.327,325.985 308.827,331.652 309,337.5C 309.698,338.691 310.531,339.691 311.5,340.5C 310.167,340.5 308.833,340.5 307.5,340.5C 307.5,333.833 307.5,327.167 307.5,320.5 Z"/></g>
<g><path style="opacity:0.008" fill="#000000" d="M 122.5,328.5 C 121.935,330.952 121.268,333.285 120.5,335.5C 119.99,332.612 120.656,330.279 122.5,328.5 Z"/></g>
<g><path style="opacity:0.58" fill="#175040" d="M 228.5,331.5 C 231.012,330.133 233.345,330.466 235.5,332.5C 234.417,332.539 233.417,332.873 232.5,333.5C 231.476,332.147 230.143,331.48 228.5,331.5 Z"/></g>
<g><path style="opacity:0.092" fill="#011918" d="M 160.5,332.5 C 160.179,334.048 159.179,334.715 157.5,334.5C 157.973,333.094 158.973,332.427 160.5,332.5 Z"/></g>
<g><path style="opacity:0.765" fill="#0e7a60" d="M 444.5,331.5 C 440.098,333.158 435.932,335.492 432,338.5C 431.51,337.207 431.343,335.873 431.5,334.5C 433.852,335.712 435.685,335.045 437,332.5C 439.527,331.127 442.027,330.793 444.5,331.5 Z"/></g>
<g><path style="opacity:0.122" fill="#0f5445" d="M 186.5,339.5 C 182.578,336.091 178.245,333.424 173.5,331.5C 175.771,330.946 178.104,331.446 180.5,333C 183.409,334.406 185.409,336.572 186.5,339.5 Z"/></g>
<g><path style="opacity:1" fill="#04d2a6" d="M 372.5,332.5 C 372.172,343.014 372.506,353.347 373.5,363.5C 373.5,364.5 373.5,365.5 373.5,366.5C 374.017,374.938 378.35,377.604 386.5,374.5C 386.863,373.817 387.196,373.15 387.5,372.5C 389.411,372.426 390.578,371.426 391,369.5C 391.498,366.518 391.665,363.518 391.5,360.5C 391.168,351.143 391.502,341.81 392.5,332.5C 395.167,332.167 397.833,331.833 400.5,331.5C 402.115,332.154 403.782,332.654 405.5,333C 406.059,333.725 406.392,334.558 406.5,335.5C 405.551,345.133 405.217,354.8 405.5,364.5C 403.561,368.369 402.561,372.703 402.5,377.5C 401.833,378.833 401.167,380.167 400.5,381.5C 399.127,381.343 397.793,381.51 396.5,382C 394.602,383.417 392.936,384.917 391.5,386.5C 390.042,388.011 388.209,389.011 386,389.5C 381.586,388.697 377.086,388.197 372.5,388C 371.944,387.617 371.611,387.117 371.5,386.5C 367.624,383.963 364.457,380.63 362,376.5C 360.939,371.896 360.273,367.229 360,362.5C 359.617,361.944 359.117,361.611 358.5,361.5C 358.168,351.81 358.502,342.144 359.5,332.5C 363.964,331.201 368.298,331.201 372.5,332.5 Z"/></g>
<g><path style="opacity:0.675" fill="#0f6b55" d="M 450.5,331.5 C 453.329,330.285 456.162,330.618 459,332.5C 460.586,334.044 462.42,335.211 464.5,336C 466.141,337.129 467.141,338.629 467.5,340.5C 467.141,338.629 466.141,337.129 464.5,336C 462.42,335.211 460.586,334.044 459,332.5C 456.162,330.618 453.329,330.285 450.5,331.5 Z"/></g>
<g><path style="opacity:0.326" fill="#0c8b6f" d="M 103.5,328.5 C 104.5,328.5 105.5,328.5 106.5,328.5C 106.5,347.833 106.5,367.167 106.5,386.5C 105.5,386.5 104.5,386.5 103.5,386.5C 104.833,367.167 104.833,347.833 103.5,328.5 Z"/></g>
<g><path style="opacity:1" fill="#08cea4" d="M 99.5,314.5 C 110.167,314.5 120.833,314.5 131.5,314.5C 132.833,319.167 132.833,323.833 131.5,328.5C 128.5,328.5 125.5,328.5 122.5,328.5C 120.656,330.279 119.99,332.612 120.5,335.5C 121.472,352.453 121.805,369.453 121.5,386.5C 116.5,386.5 111.5,386.5 106.5,386.5C 106.5,367.167 106.5,347.833 106.5,328.5C 105.5,328.5 104.5,328.5 103.5,328.5C 100.833,328.5 98.1667,328.5 95.5,328.5C 93.5636,324.285 92.8969,319.619 93.5,314.5C 95.5,314.5 97.5,314.5 99.5,314.5 Z"/></g>
<g><path style="opacity:0.663" fill="#125b4d" d="M 154.5,334.5 C 155.5,334.5 156.5,334.5 157.5,334.5C 155.606,339.463 154.606,339.463 154.5,334.5 Z"/></g>
<g><path style="opacity:0.161" fill="#00352c" d="M 372.5,332.5 C 373.267,333.172 373.934,334.005 374.5,335C 373.515,344.417 373.182,353.917 373.5,363.5C 372.506,353.347 372.172,343.014 372.5,332.5 Z"/></g>
<g><path style="opacity:0.827" fill="#0c8366" d="M 443.5,344.5 C 441.02,346.103 438.354,347.603 435.5,349C 434.794,351.714 433.461,353.881 431.5,355.5C 431.858,349.48 434.858,345.48 440.5,343.5C 441.417,344.127 442.417,344.461 443.5,344.5 Z"/></g>
<g><path style="opacity:0.137" fill="#0b5647" d="M 173.5,352.5 C 171.713,348.902 169.046,346.235 165.5,344.5C 170.91,343.905 173.577,346.572 173.5,352.5 Z"/></g>
<g><path style="opacity:0.6" fill="#0e8868" d="M 446.5,344.5 C 449.647,344.737 452.647,345.57 455.5,347C 456.311,349.62 457.644,351.953 459.5,354C 459.257,354.902 458.923,355.735 458.5,356.5C 456.127,354.421 454.794,351.754 454.5,348.5C 451.59,347.575 448.924,346.241 446.5,344.5 Z"/></g>
<g><path style="opacity:0.514" fill="#058166" d="M 161.5,345.5 C 159.573,347.635 157.907,349.969 156.5,352.5C 155.561,348.716 157.228,346.382 161.5,345.5 Z"/></g>
<g><path style="opacity:0.992" fill="#03d0a5" d="M 228.5,331.5 C 230.143,331.48 231.476,332.147 232.5,333.5C 233.417,332.873 234.417,332.539 235.5,332.5C 247.913,336.643 253.913,345.31 253.5,358.5C 253.5,359.833 253.5,361.167 253.5,362.5C 253.5,363.5 253.5,364.5 253.5,365.5C 241.189,364.63 228.856,364.296 216.5,364.5C 215.167,364.5 213.833,364.5 212.5,364.5C 212.157,366.483 212.824,367.817 214.5,368.5C 215.906,368.973 216.573,369.973 216.5,371.5C 218.374,372.837 220.374,374.171 222.5,375.5C 224.657,374.95 226.657,374.283 228.5,373.5C 230.435,372.85 232.435,372.517 234.5,372.5C 238.104,371.479 241.771,371.479 245.5,372.5C 247.207,373.873 248.54,375.539 249.5,377.5C 244.792,380.081 240.459,383.081 236.5,386.5C 231.807,388.36 226.807,389.026 221.5,388.5C 221.5,387.167 221.5,385.833 221.5,384.5C 216.599,383.254 211.933,382.087 207.5,381C 205.811,378.747 203.811,376.914 201.5,375.5C 201.147,371.99 199.814,368.99 197.5,366.5C 197.5,362.167 197.5,357.833 197.5,353.5C 197.402,347.015 200.069,342.349 205.5,339.5C 205.281,338.325 205.614,337.325 206.5,336.5C 213.086,331.922 220.419,330.256 228.5,331.5 Z M 227.5,344.5 C 229.456,345.492 231.456,346.492 233.5,347.5C 234.29,348.794 235.29,349.961 236.5,351C 235.944,351.383 235.611,351.883 235.5,352.5C 229.158,352.666 222.825,352.5 216.5,352C 215.833,351.667 215.167,351.333 214.5,351C 215.163,349.482 216.163,348.315 217.5,347.5C 217.435,347.938 217.601,348.272 218,348.5C 219.729,348.026 220.895,347.026 221.5,345.5C 223.435,344.85 225.435,344.517 227.5,344.5 Z"/></g>
<g><path style="opacity:0.043" fill="#0c4f3e" d="M 227.5,344.5 C 230.393,344.031 232.393,345.031 233.5,347.5C 231.456,346.492 229.456,345.492 227.5,344.5 Z"/></g>
<g><path style="opacity:0.086" fill="#113e37" d="M 221.5,345.5 C 220.895,347.026 219.729,348.026 218,348.5C 217.601,348.272 217.435,347.938 217.5,347.5C 218.183,345.824 219.517,345.157 221.5,345.5 Z"/></g>
<g><path style="opacity:0.075" fill="#037157" d="M 187.5,343.5 C 189.188,357.174 190.188,371.174 190.5,385.5C 188.792,386.992 187.125,387.325 185.5,386.5C 186.314,384.369 186.814,382.036 187,379.5C 187.5,367.505 187.667,355.505 187.5,343.5 Z"/></g>
<g><path style="opacity:0.082" fill="#0d3127" d="M 233.5,347.5 C 236.335,348.069 238.001,349.736 238.5,352.5C 237.5,352.5 236.5,352.5 235.5,352.5C 235.611,351.883 235.944,351.383 236.5,351C 235.29,349.961 234.29,348.794 233.5,347.5 Z"/></g>
<g><path style="opacity:0.01" fill="#000000" d="M 197.5,353.5 C 197.5,357.833 197.5,362.167 197.5,366.5C 196.522,366.189 195.855,365.522 195.5,364.5C 195.582,361.667 195.748,358.667 196,355.5C 196.278,354.584 196.778,353.918 197.5,353.5 Z"/></g>
<g><path style="opacity:0.006" fill="#000000" d="M 308.5,355.5 C 308.833,355.5 309.167,355.5 309.5,355.5C 308.935,362.993 308.269,370.66 307.5,378.5C 307.175,370.648 307.508,362.982 308.5,355.5 Z"/></g>
<g><path style="opacity:0.009" fill="#000000" d="M 327.5,355.5 C 327.833,355.5 328.167,355.5 328.5,355.5C 329.494,365.653 329.828,375.986 329.5,386.5C 328.173,382.217 327.507,377.551 327.5,372.5C 327.915,366.686 327.915,361.019 327.5,355.5 Z"/></g>
<g><path style="opacity:0.462" fill="#077a5f" d="M 328.5,355.5 C 328.56,354.957 328.893,354.624 329.5,354.5C 330.167,365.326 330.833,375.992 331.5,386.5C 330.833,387.833 330.167,387.833 329.5,386.5C 329.828,375.986 329.494,365.653 328.5,355.5 Z"/></g>
<g><path style="opacity:0.696" fill="#029677" d="M 173.5,354.5 C 174.117,354.611 174.617,354.944 175,355.5C 175.5,365.828 175.666,376.161 175.5,386.5C 173.524,376.219 172.857,365.552 173.5,354.5 Z"/></g>
<g><path style="opacity:0.012" fill="#000000" d="M 253.5,358.5 C 254.391,359.261 255.058,360.261 255.5,361.5C 255.043,362.298 254.376,362.631 253.5,362.5C 253.5,361.167 253.5,359.833 253.5,358.5 Z"/></g>
<g><path style="opacity:0.024" fill="#083228" d="M 156.5,353.5 C 157.043,353.56 157.376,353.893 157.5,354.5C 156.756,357.443 156.256,360.443 156,363.5C 155.617,364.056 155.117,364.389 154.5,364.5C 153.92,360.351 154.586,356.684 156.5,353.5 Z"/></g>
<g><path style="opacity:0.043" fill="#094b3b" d="M 472.5,352.5 C 473.117,352.611 473.617,352.944 474,353.5C 474.373,355.698 474.873,357.865 475.5,360C 475.294,362.73 474.294,364.897 472.5,366.5C 472.5,361.833 472.5,357.167 472.5,352.5 Z"/></g>
<g><path style="opacity:0.013" fill="#000202" d="M 216.5,364.5 C 215.194,365.467 214.527,366.801 214.5,368.5C 212.824,367.817 212.157,366.483 212.5,364.5C 213.833,364.5 215.167,364.5 216.5,364.5 Z"/></g>
<g><path style="opacity:0.441" fill="#018368" d="M 308.5,355.5 C 307.508,362.982 307.175,370.648 307.5,378.5C 307.5,378.833 307.5,379.167 307.5,379.5C 307.5,381.833 307.5,384.167 307.5,386.5C 307.167,386.5 306.833,386.5 306.5,386.5C 306.168,375.813 306.501,365.146 307.5,354.5C 308.107,354.624 308.44,354.957 308.5,355.5 Z"/></g>
<g><path style="opacity:0.255" fill="#115642" d="M 431.5,363.5 C 433.741,364.3 434.741,365.966 434.5,368.5C 431.916,367.952 430.916,366.285 431.5,363.5 Z"/></g>
<g><path style="opacity:0.282" fill="#0e4c3d" d="M 458.5,362.5 C 458.924,366.002 457.59,368.335 454.5,369.5C 455.074,366.679 456.408,364.346 458.5,362.5 Z"/></g>
<g><path style="opacity:0.827" fill="#15604c" d="M 197.5,366.5 C 199.814,368.99 201.147,371.99 201.5,375.5C 198.329,373.481 196.996,370.481 197.5,366.5 Z"/></g>
<g><path style="opacity:0.58" fill="#0e6e57" d="M 405.5,364.5 C 405.665,367.85 405.498,371.183 405,374.5C 404.764,376.119 403.931,377.119 402.5,377.5C 402.561,372.703 403.561,368.369 405.5,364.5 Z"/></g>
<g><path style="opacity:0.453" fill="#0e5945" d="M 245.5,372.5 C 241.771,371.479 238.104,371.479 234.5,372.5C 235.286,370.265 236.952,369.265 239.5,369.5C 242.102,369.467 244.102,370.467 245.5,372.5 Z"/></g>
<g><path style="opacity:0.561" fill="#075945" d="M 391.5,360.5 C 391.665,363.518 391.498,366.518 391,369.5C 390.578,371.426 389.411,372.426 387.5,372.5C 388.931,369.006 389.764,365.339 390,361.5C 390.383,360.944 390.883,360.611 391.5,360.5 Z"/></g>
<g><path style="opacity:0.014" fill="#103029" d="M 358.5,365.5 C 359.477,368.287 359.81,371.287 359.5,374.5C 357.622,371.715 357.289,368.715 358.5,365.5 Z"/></g>
<g><path style="opacity:0.333" fill="#113930" d="M 454.5,369.5 C 453.878,372.776 451.878,374.109 448.5,373.5C 450.463,372.18 452.463,370.846 454.5,369.5 Z"/></g>
<g><path style="opacity:0.431" fill="#11332a" d="M 216.5,371.5 C 220.426,372.552 224.426,373.218 228.5,373.5C 226.657,374.283 224.657,374.95 222.5,375.5C 220.374,374.171 218.374,372.837 216.5,371.5 Z"/></g>
<g><path style="opacity:0.569" fill="#094f3b" d="M 245.5,372.5 C 247.903,372.393 249.736,373.393 251,375.5C 251.528,376.816 251.028,377.483 249.5,377.5C 248.54,375.539 247.207,373.873 245.5,372.5 Z"/></g>
<g><path style="opacity:0.722" fill="#105947" d="M 373.5,366.5 C 375.153,368.961 377.153,371.128 379.5,373C 382.221,373.602 384.887,373.435 387.5,372.5C 387.196,373.15 386.863,373.817 386.5,374.5C 378.35,377.604 374.017,374.938 373.5,366.5 Z"/></g>
<g><path style="opacity:0.082" fill="#13735a" d="M 434.5,368.5 C 438.301,372.293 442.968,373.96 448.5,373.5C 447.666,374.748 446.333,375.415 444.5,375.5C 441.629,375.029 438.962,374.029 436.5,372.5C 435.295,371.423 434.628,370.09 434.5,368.5 Z"/></g>
<g><path style="opacity:1" fill="#0c9977" d="M 468.5,342.5 C 469.75,342.577 470.583,343.244 471,344.5C 472.079,347.063 472.579,349.729 472.5,352.5C 472.5,357.167 472.5,361.833 472.5,366.5C 473.408,368.452 473.241,370.452 472,372.5C 469.534,377.124 466.367,381.124 462.5,384.5C 460.677,385.747 458.677,386.414 456.5,386.5C 457.174,384.976 458.174,383.642 459.5,382.5C 460.325,381.614 461.325,381.281 462.5,381.5C 464.53,378.979 466.864,375.813 469.5,372C 472.242,362.066 471.908,352.233 468.5,342.5 Z"/></g>
<g><path style="opacity:0.69" fill="#0a9878" d="M 358.5,361.5 C 359.117,361.611 359.617,361.944 360,362.5C 360.273,367.229 360.939,371.896 362,376.5C 364.457,380.63 367.624,383.963 371.5,386.5C 368.99,386.009 366.656,385.009 364.5,383.5C 363.718,380.924 362.218,378.924 360,377.5C 359.517,376.552 359.351,375.552 359.5,374.5C 359.81,371.287 359.477,368.287 358.5,365.5C 358.5,364.167 358.5,362.833 358.5,361.5 Z"/></g>
<g><path style="opacity:0.007" fill="#000000" d="M 307.5,379.5 C 308.283,381.343 308.95,383.343 309.5,385.5C 309.043,386.298 308.376,386.631 307.5,386.5C 307.5,384.167 307.5,381.833 307.5,379.5 Z"/></g>
<g><path style="opacity:0.008" fill="#000000" d="M 154.5,380.5 C 155.497,380.47 156.164,380.97 156.5,382C 156.101,383.728 155.434,385.228 154.5,386.5C 154.5,384.5 154.5,382.5 154.5,380.5 Z"/></g>
<g><path style="opacity:0.457" fill="#069775" d="M 249.5,377.5 C 246.779,382.759 242.445,385.759 236.5,386.5C 240.459,383.081 244.792,380.081 249.5,377.5 Z"/></g>
<g><path style="opacity:0.392" fill="#15785e" d="M 400.5,381.5 C 398.272,384.45 395.272,386.116 391.5,386.5C 392.936,384.917 394.602,383.417 396.5,382C 397.793,381.51 399.127,381.343 400.5,381.5 Z"/></g>
<g><path style="opacity:1" fill="#0ba881" d="M 201.5,375.5 C 203.811,376.914 205.811,378.747 207.5,381C 211.933,382.087 216.599,383.254 221.5,384.5C 221.5,385.833 221.5,387.167 221.5,388.5C 212.143,388.163 205.477,383.83 201.5,375.5 Z"/></g>
<g><path style="opacity:0.007" fill="#000000" d="M 292.5,383.5 C 292.5,384.5 292.5,385.5 292.5,386.5C 290.015,385.74 290.015,384.74 292.5,383.5 Z"/></g>
<g><path style="opacity:0.194" fill="#116751" d="M 438.5,386.5 C 436.194,386.007 433.861,385.674 431.5,385.5C 431.5,384.5 431.5,383.5 431.5,382.5C 434.682,382.584 437.015,383.917 438.5,386.5 Z"/></g>
</svg>
